<svg width="78" height="84" viewBox="0 0 78 84" fill="none" xmlns="http://www.w3.org/2000/svg">
<path opacity="0.9" d="M26.9723 81.0002C22.9723 79.8002 20.3609 75.9998 16.4723 72.5C12.5836 69.0002 8.67228 64 7.4723 62C3.3942 55.2031 1.9723 50.0004 1.47223 41.5C0.97216 32.9996 1.47223 33.9999 1.47223 28.5002C1.47223 23.0005 5.97232 22.0004 7.4723 18.5002C8.97228 15 9.47228 15.9995 8.47229 11.4999C7.4723 7.00017 9.46967 4.50114 15.4723 2.50007C21.4749 0.498994 27.4723 2.99986 30.4723 3.99997C33.4723 5.00007 38.9723 7.00036 44.4723 5.99997C49.9723 4.99957 55.4723 3.50017 61.9723 7.00017C68.4723 10.5002 69.4723 12.5 72.4723 19.5C75.4723 26.5 75.4723 35.5 75.9723 45C76.4723 54.5 76.4723 59.9998 69.9723 71.5C63.4723 83.0002 53.4723 79.5002 44.4723 81.0002C35.4723 82.5002 31.9723 82.5002 26.9723 81.0002Z" fill="#F1EAE1" stroke="#CC672F" stroke-width="2" stroke-linecap="round" stroke-dasharray="3 5"/>
</svg>
