<svg width="51" height="49" viewBox="0 0 51 49" fill="none" xmlns="http://www.w3.org/2000/svg">
<path opacity="0.9" d="M33 8.5C31 5 28.5 5 25.5001 3.50004L25.4992 3.49962C22.4997 1.99989 20.4997 0.999924 16.5001 1.49996C12.5 2.00004 9.00005 5.00004 7.50005 6.00004C6.00005 7.00004 4.00007 9.49996 2.00013 13.5C0.00019002 17.5 0.500049 22 2.00005 24.5C3.50005 27 6.50005 28.5001 10.0001 26C13.5001 23.5 15.0001 27 15.0001 29.5C15.0001 32 15.5 35.5 17 38.5C18.5 41.5 20.5 43 24.5 45.5C28.5 48 33 48.5 37.5 47.5C42 46.5 45 43 47.5 39.5C50 36 50.0001 29.5001 48.5 26C47 22.5 44.5 16 42 13.5C39.5 11 35 12 33 8.5Z" fill="#F1EAE1" stroke="#CC672F" stroke-width="2" stroke-linecap="round" stroke-dasharray="3 5"/>
</svg>
