<svg width="60" height="68" viewBox="0 0 60 68" fill="none" xmlns="http://www.w3.org/2000/svg">
<path opacity="0.9" d="M23.7528 3.84825C18.1736 1.19146 9.69401 1.85566 6.15163 2.51986C4.38044 2.96265 2.56497 4.37962 1.50226 6.5051C0.173869 9.16196 1.78409 12.8554 2.83067 15.4717C3.49488 17.1322 7.81214 18.1285 12.1294 18.1285C16.4467 18.1285 20.4319 20.1211 20.764 22.1137C21.0961 24.1063 16.7788 25.1026 14.7862 27.7594C12.7936 30.4162 12.1294 36.3939 12.1294 39.0507C12.1294 41.7075 14.7862 52.3346 16.4467 56.984C18.1072 61.6334 22.4245 64.2902 27.738 65.9507C30.555 66.831 32.7078 65.9162 35.3763 66.0115C37.7413 66.0961 40.6539 67.259 42.6824 66.9469C46.9997 66.2827 53.6416 60.305 54.97 56.984C56.2984 53.663 58.291 45.3606 58.6231 40.3791C58.9552 35.3976 55.3021 30.4162 53.6416 27.7594C51.9812 25.1026 44.0108 22.7779 42.6824 22.1137C41.354 21.4495 41.354 16.8001 38.3651 13.4792C35.3763 10.1582 30.7269 7.16923 23.7528 3.84825Z" fill="#F1EAE1" stroke="#CC672F" stroke-width="2" stroke-linecap="round" stroke-dasharray="3 5"/>
</svg>
