<svg width="48" height="73" viewBox="0 0 48 73" fill="none" xmlns="http://www.w3.org/2000/svg">
<path opacity="0.9" d="M25 6.50002C21.19 1.05289 13.9393 1.53622 9.01545 2.35729C4.09162 3.17836 1 9.37298 1 15.2619C1 21.1509 4.01625 23 7.90159 23C10.3411 23 13.9876 22.446 14.433 27.3484C14.8783 32.2508 15.2393 31.7061 12.8001 36.0638C10.3609 40.4214 4.4202 43.5125 3.43949 50.4879C2.45877 57.4632 3.17349 58.4739 7.90159 64.3886C9.29558 66.1325 10.7522 69.1382 13.8887 69.8357C18.4013 70.8393 20.7352 65.0385 23.6858 66.0228C26.6363 67.0071 28.3222 71.2049 30.2738 71.7629C32.7133 72.4605 34.5714 71.7686 36.2042 67.6569C37.8371 63.5452 42.0034 67.0393 44.2138 64.0899C46.3047 61.2997 46.1515 58.4877 46.5 55C47.1594 48.4006 39 39 38 34.5C37 30 36.7657 30.9471 33.5 25.5C30.2343 20.0529 28.81 11.9471 25 6.50002Z" fill="#F1EAE1" stroke="#CC672F" stroke-width="2" stroke-linecap="round" stroke-dasharray="3 5"/>
</svg>
